# xmcd
#
# Track frame offsets:
#	150
#	13354
#	26766
#	42753
#	57495
#	71196
#	87301
#	106032
#	121589
#	135435
#	150684
#	164583
#	182589
#	198968
#
# Disc length: 3027 seconds
#
# Revision: 1
# Processed by: cddbd v1.5.2PL0 Copyright (c) Steve Scherf et al.
# Submitted via: audiograbber 1.83.01
#
DISCID=b90bd10e
DTITLE=Velvet - The Queen
DYEAR=2009
DGENRE=Dance
TTITLE0=The Queen
TTITLE1=Chemistry
TTITLE2=Take My Body Close
TTITLE3=Sound Of Music
TTITLE4=Radio Star
TTITLE5=My Rhythm
TTITLE6=Play
TTITLE7=Come Into The Night
TTITLE8=Déjà Vu
TTITLE9=Dancing With Tears In My Eyes
TTITLE10=Fix Me
TTITLE11=My Destiny
TTITLE12=The Queen Remix ( Bonus Track )
TTITLE13=Chemistry - Digital Dog Remix ( Bonus Track )
EXTD=
EXTT0=
EXTT1=
EXTT2=
EXTT3=
EXTT4=
EXTT5=
EXTT6=
EXTT7=
EXTT8=
EXTT9=
EXTT10=
EXTT11=
EXTT12=
EXTT13=
PLAYORDER=
